<svg id="Layer_1" data-name="Layer 1" xmlns="http://www.w3.org/2000/svg" xmlns:xlink="http://www.w3.org/1999/xlink" viewBox="0 0 42 42"><defs><style>.cls-1,.cls-4{isolation:isolate;}.cls-2,.cls-3{fill-rule:evenodd;}.cls-2{fill:url(#linear-gradient);}.cls-3{fill:url(#linear-gradient-2);}.cls-4{opacity:0.25;}.cls-5{fill:#0097f4;}.cls-6{fill:#fff;}</style><linearGradient id="linear-gradient" x1="-76.89" y1="25.79" x2="-76.89" y2="26.84" gradientTransform="translate(2174.05 -690) scale(28 27)" gradientUnits="userSpaceOnUse"><stop offset="0" stop-color="#4f4f4f"/><stop offset="1" stop-color="#393939"/></linearGradient><linearGradient id="linear-gradient-2" x1="-76.48" y1="26.12" x2="-75.83" y2="27.16" gradientTransform="translate(1697 -537) scale(22 21)" gradientUnits="userSpaceOnUse"><stop offset="0" stop-color="#a8e8ff"/><stop offset="1" stop-color="#cdbeff"/></linearGradient></defs><g id="dcc_nav_systeminfo_42px" data-name="dcc nav systeminfo 42px"><g id="编组"><image id="位图" class="cls-1" width="32" height="31" transform="translate(5 7)" xlink:href="../E249FC9F.png"/><path id="形状结合" class="cls-2" d="M30.9,8A4.06,4.06,0,0,1,35,12.1v7.2h-.1A1.73,1.73,0,0,0,33.3,21,1.69,1.69,0,0,0,35,22.7v8a4.06,4.06,0,0,1-4.1,4.1H11.1A3.78,3.78,0,0,1,7,30.9v-8H7a1.79,1.79,0,0,0,1.8-1.8A1.71,1.71,0,0,0,7,19.4H7V12.1A4.06,4.06,0,0,1,11.1,8ZM9.5,32a.5.5,0,1,0,.5.5A.47.47,0,0,0,9.5,32Zm23,0a.5.5,0,1,0,.5.5A.47.47,0,0,0,32.5,32ZM9.5,10a.5.5,0,1,0,.5.5A.47.47,0,0,0,9.5,10Zm23,0a.5.5,0,1,0,.5.5A.47.47,0,0,0,32.5,10Z"/><g id="矩形"><path id="path-3" class="cls-3" d="M13,11H29a3,3,0,0,1,3,3V29a3,3,0,0,1-3,3H13a3,3,0,0,1-3-3V14A3,3,0,0,1,13,11Z"/></g></g></g><image class="cls-4" width="22" height="23" transform="translate(10 10)" xlink:href="../E249FC9A.png"/><circle class="cls-5" cx="21" cy="21.5" r="7.5"/><rect class="cls-6" x="22.06" y="15.12" width="0.2" height="7.8" transform="translate(-5.26 29.07) rotate(-60.78)"/><rect class="cls-6" x="21.79" y="15.69" width="0.2" height="7.8" transform="translate(-5.9 29.13) rotate(-60.78)"/><rect class="cls-6" x="18.2" y="17.7" width="0.2" height="7.4"/><rect class="cls-6" x="18.8" y="17.7" width="0.2" height="7.4"/><circle class="cls-5" cx="18.7" cy="17.4" r="1.7"/><rect class="cls-6" x="17.98" y="22.72" width="7.7" height="0.2" transform="translate(-8.33 13.45) rotate(-29.01)"/><rect class="cls-6" x="18.3" y="23.32" width="7.7" height="0.2" transform="translate(-8.58 13.68) rotate(-29.01)"/><circle class="cls-5" cx="18.7" cy="25.1" r="1.7"/><circle class="cls-5" cx="25.4" cy="21.3" r="1.7"/><circle class="cls-6" cx="18.7" cy="17.4" r="1.4"/><circle class="cls-6" cx="25.4" cy="21.3" r="1.4"/><circle class="cls-6" cx="18.7" cy="25.1" r="1.4"/></svg>